# xmcd
#
# Track frame offsets:
#	150
#	24825
#	45143
#	58275
#	79401
#	92987
#	108022
#	132882
#	151884
#	172960
#	186993
#
# Disc length: 2717 seconds
#
# Revision: 0
# Processed by: cddbd v1.4PL0 Copyright (c) Steve Scherf et al.
# Submitted via: EasyCDDAExtractor 4.6.9.1
#
DISCID=810a9b0b
DTITLE=Dan Klarskov and The Honey Drippers
DYEAR=1998
DGENRE=Blues
TTITLE0=The Honeydripper
TTITLE1=I Left My Baby
TTITLE2=Wee Wee Baby
TTITLE3=Night and Day
TTITLE4=Strollin' with Bone
TTITLE5=Back O' Town Blues
TTITLE6=I Wish You Were Mine
TTITLE7=T-Bone Shuffle
TTITLE8=My Baby's Comin' Back
TTITLE9=Jealous Woman
TTITLE10=Git These Blues off me
EXTD=
EXTT0=
EXTT1=
EXTT2=
EXTT3=
EXTT4=
EXTT5=
EXTT6=
EXTT7=
EXTT8=
EXTT9=
EXTT10=
PLAYORDER=
